<svg xmlns="http://www.w3.org/2000/svg" width="48" height="48" viewBox="0 0 16 16" version="1.1" fill="#9696a0"><g><path fill="none" stroke="rgb(49.019608%,49.019608%,52.941176%)" d="M 7.5 10.830078 C 5.664062 10.830078 4.169922 9.335938 4.169922 7.5 C 4.169922 5.664062 5.664062 4.169922 7.5 4.169922 C 9.335938 4.169922 10.830078 5.664062 10.830078 7.5 C 10.830078 9.335938 9.335938 10.830078 7.5 10.830078 Z M 10 35.830078 L 5 35.830078 L 4.169922 26.669922 L 1.669922 25.830078 L 1.669922 18.330078 C 1.669922 16.494141 3.164062 15 5 15 L 10 15 C 11.210938 15 12.275391 15.644531 12.851562 16.611328 M 32.5 10.830078 C 34.335938 10.830078 35.830078 9.335938 35.830078 7.5 C 35.830078 5.664062 34.335938 4.169922 32.5 4.169922 C 30.664062 4.169922 29.169922 5.664062 29.169922 7.5 C 29.169922 9.335938 30.664062 10.830078 32.5 10.830078 Z M 30 35.830078 L 35 35.830078 L 35.830078 26.669922 L 38.330078 25.830078 L 38.330078 18.330078 C 38.330078 16.494141 36.835938 15 35 15 L 30 15 C 28.828125 15 27.744141 15.615234 27.148438 16.611328 " transform="matrix(0.4,0,0,0.4,0,0)" stroke-width="1.667" stroke-linecap="round" stroke-linejoin="round"></path><path fill="none" stroke="rgb(89.411765%,0%,16.862745%)" d="M 20 11.669922 C 17.236328 11.669922 15 9.423828 15 6.669922 C 15 3.90625 17.236328 1.669922 20 1.669922 C 22.763672 1.669922 25 3.90625 25 6.669922 C 25 9.423828 22.763672 11.669922 20 11.669922 Z M 24.169922 38.330078 L 15.830078 38.330078 L 15 28.330078 L 11.669922 27.5 L 11.669922 19.169922 C 11.669922 17.324219 13.154297 15.830078 15 15.830078 L 25 15.830078 C 26.845703 15.830078 28.330078 17.324219 28.330078 19.169922 L 28.330078 27.5 L 25 28.330078 Z M 24.169922 38.330078 " transform="matrix(0.4,0,0,0.4,0,0)" stroke-width="1.667" stroke-linecap="round" stroke-linejoin="round"></path></g></svg>