<svg xmlns="http://www.w3.org/2000/svg" viewBox="0 0 24 24" width="24" height="24" fill="#fff"><path d="M22 20c.553 0 1 .448 1 1s-.447 1-1 1H7c-.553 0-1-.448-1-1s.447-1 1-1zM6 5.5c2.757 0 5 2.243 5 5 0 1.017-.309 1.962-.833 2.753l3.54 3.54c.391.391.391 1.023 0 1.414-.195.195-.451.293-.707.293-.256 0-.512-.098-.707-.293l-3.54-3.54c-.791.524-1.736.833-2.753.833-2.757 0-5-2.243-5-5s2.243-5 5-5zM22 14c.552 0 1 .448 1 1l-.007.117c-.058.497-.48.883-.993.883h-7c-.553 0-1-.448-1-1s.447-1 1-1zM6 7.5c-1.657 0-3 1.343-3 3s1.343 3 3 3 3-1.343 3-3-1.343-3-3-3zM22 8c.552 0 1 .448 1 1l-.007.117c-.058.497-.48.883-.993.883h-7c-.553 0-1-.448-1-1s.447-1 1-1zm0-6c.553 0 1 .448 1 1s-.447 1-1 1H7c-.553 0-1-.448-1-1s.447-1 1-1z"></path></svg>