<svg xmlns="http://www.w3.org/2000/svg" width="48" height="48" viewBox="0 0 16 16" version="1.1" fill="#9696a0"><g id="surface1"><path fill="none" stroke="rgb(49.019608%,49.019608%,52.941176%)" d="M 38.330078 1.669922 L 1.669922 1.669922 L 1.669922 30.830078 L 13.330078 30.830078 L 20 37.5 L 26.669922 30.830078 L 38.330078 30.830078 Z M 38.330078 1.669922 " transform="matrix(0.4,0,0,0.4,0,0)" stroke-width="1.667" stroke-linejoin="round"></path><path fill="none" stroke="rgb(89.411765%,0%,16.862745%)" d="M 27.5 25 L 12.5 25 L 12.5 23.134766 C 12.5 21.650391 13.466797 20.351562 14.892578 19.931641 C 16.220703 19.541016 18.007812 19.169922 20 19.169922 C 21.962891 19.169922 23.759766 19.550781 25.107422 19.941406 C 26.523438 20.361328 27.5 21.660156 27.5 23.144531 Z M 15.830078 11.669922 C 15.830078 9.365234 17.695312 7.5 20 7.5 C 22.304688 7.5 24.169922 9.365234 24.169922 11.669922 C 24.169922 13.964844 22.304688 16.669922 20 16.669922 C 17.695312 16.669922 15.830078 13.964844 15.830078 11.669922 Z M 15.830078 11.669922 " transform="matrix(0.4,0,0,0.4,0,0)" stroke-width="1.667"></path></g></svg>