<svg xmlns="http://www.w3.org/2000/svg" width="48" height="48" viewBox="0 0 16 16" version="1.1" fill="#9696a0"><g><path fill="none" stroke="rgb(49.019608%,49.019608%,52.941176%)" d="M 12.919922 25.830078 L 16.044922 32.744141 C 16.650391 34.091797 16.044922 35.683594 14.6875 36.279297 C 13.339844 36.884766 11.757812 36.279297 11.152344 34.931641 L 5.126953 21.416016 " transform="matrix(0.4,0,0,0.4,0,0)" stroke-width="1.667" stroke-linecap="round"></path><path fill="none" stroke="rgb(49.019608%,49.019608%,52.941176%)" d="M 26.669922 30 L 13.330078 21.669922 L 6.669922 21.669922 C 3.90625 21.669922 1.669922 19.423828 1.669922 16.669922 C 1.669922 13.90625 3.90625 11.669922 6.669922 11.669922 L 13.330078 11.669922 L 26.669922 3.330078 Z M 26.669922 30 " transform="matrix(0.4,0,0,0.4,0,0)" stroke-width="1.667" stroke-linejoin="round"></path><path fill="none" stroke="rgb(89.411765%,0%,16.862745%)" d="M 35 16.669922 L 38.330078 16.669922 M 32.988281 9.169922 L 35.878906 7.5 M 32.988281 24.169922 L 35.878906 25.830078 " transform="matrix(0.4,0,0,0.4,0,0)" stroke-width="1.667" stroke-linecap="round"></path><path fill="none" stroke="rgb(49.019608%,49.019608%,52.941176%)" d="M 8.330078 11.669922 L 8.330078 21.669922 " transform="matrix(0.4,0,0,0.4,0,0)" stroke-width="1.667"></path></g></svg>